HIERARCHY
ROOT Hips
{
	OFFSET 0.00000 0.00000 0.00000
	CHANNELS 6 Xposition Yposition Zposition Zrotation Yrotation Xrotation 
	JOINT LHipJoint
	{
		OFFSET 0 0 0
		CHANNELS 3 Zrotation Yrotation Xrotation
		JOINT LeftUpLeg
		{
			OFFSET 1.86795 -1.59681 0.65681
			CHANNELS 3 Zrotation Yrotation Xrotation
			JOINT LeftLeg
			{
				OFFSET 2.30491 -6.33268 0.00000
				CHANNELS 3 Zrotation Yrotation Xrotation
				JOINT LeftFoot
				{
					OFFSET 2.46780 -6.78022 0.00000
					CHANNELS 3 Zrotation Yrotation Xrotation
					JOINT LeftToeBase
					{
						OFFSET 0.07897 -0.21698 1.59652
						CHANNELS 3 Zrotation Yrotation Xrotation
						End Site
						{
							OFFSET 0.00000 -0.00000 0.82310
						}
					}
				}
			}
		}
	}
	JOINT RHipJoint
	{
		OFFSET 0 0 0
		CHANNELS 3 Zrotation Yrotation Xrotation
		JOINT RightUpLeg
		{
			OFFSET -1.93650 -1.59681 0.65681
			CHANNELS 3 Zrotation Yrotation Xrotation
			JOINT RightLeg
			{
				OFFSET -2.29410 -6.30299 0.00000
				CHANNELS 3 Zrotation Yrotation Xrotation
				JOINT RightFoot
				{
					OFFSET -2.48738 -6.83403 0.00000
					CHANNELS 3 Zrotation Yrotation Xrotation
					JOINT RightToeBase
					{
						OFFSET -0.08699 -0.23899 1.89395
						CHANNELS 3 Zrotation Yrotation Xrotation
						End Site
						{
							OFFSET -0.00000 -0.00000 0.96904
						}
					}
				}
			}
		}
	}
	JOINT LowerBack
	{
		OFFSET 0 0 0
		CHANNELS 3 Zrotation Yrotation Xrotation
		JOINT Spine
		{
			OFFSET 0.03629 1.99740 -0.07548
			CHANNELS 3 Zrotation Yrotation Xrotation
			JOINT Spine1
			{
				OFFSET 0.03970 1.94298 0.17218
				CHANNELS 3 Zrotation Yrotation Xrotation
				JOINT Neck
				{
					OFFSET 0 0 0
					CHANNELS 3 Zrotation Yrotation Xrotation
					JOINT Neck1
					{
						OFFSET -0.05054 1.79469 0.04241
						CHANNELS 3 Zrotation Yrotation Xrotation
						JOINT Head
						{
							OFFSET 0.05195 1.78475 -0.22133
							CHANNELS 3 Zrotation Yrotation Xrotation
							End Site
							{
								OFFSET 0.02420 1.80711 -0.07950
							}
						}
					}
				}
				JOINT LeftShoulder
				{
					OFFSET 0 0 0
					CHANNELS 3 Zrotation Yrotation Xrotation
					JOINT LeftArm
					{
						OFFSET 2.92134 1.19850 0.36056
						CHANNELS 3 Zrotation Yrotation Xrotation
						JOINT LeftForeArm
						{
							OFFSET 4.84137 -0.00000 0.00000
							CHANNELS 3 Zrotation Yrotation Xrotation
							JOINT LeftHand
							{
								OFFSET 3.24520 -0.00000 -0.00000
								CHANNELS 3 Zrotation Yrotation Xrotation
								JOINT LeftFingerBase
								{
									OFFSET 0 0 0
									CHANNELS 3 Zrotation Yrotation Xrotation
									JOINT LeftHandIndex1
									{
										OFFSET 0.52122 -0.00000 0.00000
										CHANNELS 3 Zrotation Yrotation Xrotation
										End Site
										{
											OFFSET 0.42022 -0.00000 0.00000
										}
									}
								}
								JOINT LThumb
								{
									OFFSET 0 0 0
									CHANNELS 3 Zrotation Yrotation Xrotation
									End Site
									{
										OFFSET 0.42664 -0.00000 0.42664
									}
								}
							}
						}
					}
				}
				JOINT RightShoulder
				{
					OFFSET 0 0 0
					CHANNELS 3 Zrotation Yrotation Xrotation
					JOINT RightArm
					{
						OFFSET -2.84327 1.20795 0.50191
						CHANNELS 3 Zrotation Yrotation Xrotation
						JOINT RightForeArm
						{
							OFFSET -4.72284 -0.00000 0.00000
							CHANNELS 3 Zrotation Yrotation Xrotation
							JOINT RightHand
							{
								OFFSET -3.23459 -0.00000 0.00000
								CHANNELS 3 Zrotation Yrotation Xrotation
								JOINT RightFingerBase
								{
									OFFSET 0 0 0
									CHANNELS 3 Zrotation Yrotation Xrotation
									JOINT RightHandIndex1
									{
										OFFSET -0.30742 -0.00000 0.00000
										CHANNELS 3 Zrotation Yrotation Xrotation
										End Site
										{
											OFFSET -0.24785 -0.00000 0.00000
										}
									}
								}
								JOINT RThumb
								{
									OFFSET 0 0 0
									CHANNELS 3 Zrotation Yrotation Xrotation
									End Site
									{
										OFFSET -0.25163 -0.00000 0.25163
									}
								}
							}
						}
					}
				}
			}
		}
	}
}
MOTION
Frames: 15
Frame Time: .0083333
8.6774 16.3027 -14.8882 -3.8831 -3.3536 -337.9630 0.0000 0.0000 0.0000 -27.3567 -15.4958 -42.5596 7.6062 15.8218 51.1314 0.8237 0.1698 17.0993 2.5520 9.9319 28.7565 0.0000 0.0000 0.0000 1.7596 32.2270 -47.1865 -7.0075 -15.3382 48.9028 0.0759 -10.1319 5.7721 -0.1382 2.3963 -6.6022 4.9203 -2.8329 26.4993 2.5662 -2.0374 5.1165 0.7183 -1.0613 -9.0560 -2.0406 5.8283 -10.4874 -3.5769 7.8008 -11.8576 -0.6794 4.0643 -1.9304 -0.0000 0.0000 0.0000 -95.1651 -20.3096 50.5980 106.3170 -58.9697 -74.0820 -0.0000 -0.0000 63.2778 -43.3859 37.6026 -29.9736 -7.1250 0.0000 -0.0000 -76.3121 52.7084 -26.2428 -0.0000 0.0000 0.0000 79.7198 30.1101 52.0336 -112.7082 57.9590 -79.5311 0.0000 0.0000 16.3646 20.2413 -1.7842 -0.6578 7.1250 -0.0000 -0.0000 35.0583 -29.9275 15.7345
8.5950 16.3048 -14.7421 -3.9081 -1.9287 -337.6070 0.0000 0.0000 0.0000 -26.2570 -15.9890 -45.1480 8.5837 16.5323 54.6390 1.2001 2.1921 20.0984 3.1943 11.0031 32.2904 0.0000 0.0000 0.0000 1.4956 33.2683 -46.7026 -6.8138 -15.1731 48.1667 0.2278 -12.0198 4.7562 -0.2546 3.2467 -8.9664 5.0416 -2.9903 25.7359 2.3752 -2.2826 5.2468 0.4812 -1.1737 -8.5396 -1.4483 5.9092 -11.1157 -3.1108 7.9216 -11.1637 -0.5867 4.0830 -1.5981 0.0000 -0.0000 0.0000 -94.4523 -20.9977 50.3178 105.9277 -59.0194 -73.7483 -0.0000 -0.0000 62.8650 -44.3741 38.0117 -31.0695 -7.1250 0.0000 -0.0000 -77.4609 52.7059 -27.1992 0.0000 -0.0000 0.0000 79.7863 30.5792 52.3107 -112.1434 58.0637 -79.0521 0.0000 0.0000 16.3610 19.6522 -2.0666 -0.7378 7.1250 -0.0000 -0.0000 34.7909 -30.2366 15.2287
8.5126 16.2857 -14.5923 -4.2161 -0.4288 -337.3160 0.0000 0.0000 0.0000 -24.8221 -16.4595 -47.9020 9.6622 17.2155 58.3532 1.5023 2.7575 22.4440 2.6864 10.1692 29.5265 0.0000 0.0000 0.0000 2.6852 33.2779 -45.7791 -6.8008 -15.1618 48.1168 0.2011 -13.2471 6.4972 -0.4183 4.1514 -11.5030 5.4608 -2.9090 24.8794 2.5035 -2.1168 5.1803 0.2978 -1.0999 -8.1796 -1.6803 5.6575 -11.0592 -2.3475 7.6669 -10.4450 -0.3065 3.9489 -1.4176 0.0000 -0.0000 0.0000 -94.5626 -21.2044 50.8169 105.2996 -59.0968 -73.2096 -0.0000 -0.0000 62.6518 -44.6551 38.1096 -31.3741 -7.1250 0.0000 -0.0000 -77.7638 52.6959 -27.4355 0.0000 -0.0000 0.0000 79.1234 30.6469 51.9180 -111.2874 58.2165 -78.3250 0.0000 0.0000 16.5109 19.6329 -2.0410 -0.7279 7.1250 -0.0000 -0.0000 34.7700 -30.2162 15.2369
8.4360 16.2647 -14.4315 -4.8876 1.1179 -337.3650 0.0000 0.0000 0.0000 -23.1761 -16.6374 -50.3573 10.7562 17.8137 61.9873 1.6247 1.2327 23.7494 1.5796 7.9292 22.4991 0.0000 0.0000 0.0000 5.1545 32.5779 -44.1618 -6.8245 -15.1823 48.2073 0.2067 -14.2428 7.3606 -1.1090 6.6906 -18.8019 6.0664 -2.8734 24.4989 2.7592 -1.9119 4.9821 0.1637 -1.0156 -8.2059 -2.0023 5.4420 -10.8413 -1.4964 7.4626 -9.5956 0.0101 3.8424 -1.2284 -0.0000 -0.0000 0.0000 -94.7244 -21.0289 51.1186 104.7345 -59.1636 -72.7246 -0.0000 -0.0000 63.0096 -44.6520 37.6606 -31.1155 -7.1250 0.0000 -0.0000 -77.1679 52.4937 -26.4440 -0.0000 -0.0000 0.0000 78.5649 30.1652 51.6421 -110.8955 58.2842 -77.9918 0.0000 0.0000 16.8058 19.9481 -1.4643 -0.5314 7.1250 -0.0000 -0.0000 34.7680 -29.6790 15.8070
8.3569 16.2470 -14.2749 -5.7554 2.8773 -337.5570 0.0000 0.0000 0.0000 -21.4822 -16.7382 -52.6771 11.7382 18.2778 65.1567 1.5112 0.3049 23.1638 0.8015 5.7141 15.9572 0.0000 0.0000 0.0000 7.9241 31.7276 -42.3570 -6.7713 -15.1362 48.0039 0.4426 -16.2886 6.1632 -1.6025 7.9837 -22.6645 6.6595 -2.9573 24.2389 3.1231 -1.8486 4.8555 0.2043 -0.9959 -8.2141 -2.1348 5.2721 -10.9956 -0.8554 7.2885 -8.6361 0.2458 3.7456 -0.9316 -0.0000 -0.0000 0.0000 -94.7584 -20.9797 51.1883 104.5409 -59.1858 -72.5583 -0.0000 -0.0000 63.6631 -45.3909 37.0569 -31.4202 -7.1250 0.0000 -0.0000 -76.8144 52.0779 -25.1400 -0.0000 -0.0000 0.0000 78.3256 29.8773 51.6243 -110.5276 58.3463 -77.6787 0.0000 0.0000 17.2078 19.3260 -0.6609 -0.2318 7.1250 -0.0000 -0.0000 34.1157 -29.0392 16.0361
8.2763 16.2334 -14.1349 -6.5799 4.7686 -337.7780 0.0000 0.0000 0.0000 -19.8829 -17.0219 -54.8305 12.4882 18.5895 67.5280 1.2854 1.9128 20.8904 0.4353 4.2336 11.7348 0.0000 0.0000 0.0000 10.1842 31.1250 -40.7026 -6.6046 -14.9897 47.3625 0.6485 -17.8233 5.1326 -1.7590 8.3450 -23.7670 7.3691 -3.0611 23.9476 3.3910 -1.7983 4.7567 0.0761 -0.9846 -8.1809 -2.0137 4.9919 -10.8970 -0.4391 6.9171 -8.1011 0.3526 3.5499 -0.7873 -0.0000 0.0000 0.0000 -94.6409 -20.9271 51.4995 104.5409 -59.1858 -72.5583 -0.0000 -0.0000 64.2126 -45.4650 36.7870 -31.3264 -7.1250 0.0000 -0.0000 -76.5009 51.9380 -24.5406 -0.0000 0.0000 0.0000 78.4155 29.6792 51.4941 -110.1366 58.4110 -77.3457 0.0000 0.0000 17.7402 18.4379 -0.2541 -0.0847 7.1250 -0.0000 -0.0000 33.4317 -28.7686 15.8450
8.2116 16.2346 -13.9936 -6.9346 6.4791 -338.3930 0.0000 0.0000 0.0000 -19.0055 -17.4967 -55.9078 12.8755 18.7367 68.7383 1.0276 3.5268 18.3035 0.1777 2.7154 7.4873 0.0000 0.0000 0.0000 11.9226 30.2965 -38.6201 -6.3674 -14.7752 46.4390 0.6092 -17.8780 5.7713 -1.6717 8.1458 -23.1578 7.7749 -3.1295 24.1262 3.5006 -1.7475 4.7415 -0.0395 -0.9682 -8.2943 -2.0129 4.6160 -10.8482 -0.0617 6.4269 -7.8279 0.4607 3.3014 -0.7169 -0.0000 0.0000 0.0000 -94.7827 -20.6961 52.1569 104.5290 -59.1872 -72.5482 -0.0000 -0.0000 64.7435 -44.9833 36.8309 -30.9260 -7.1250 0.0000 -0.0000 -76.2737 52.0466 -24.6252 -0.0000 0.0000 0.0000 78.4998 29.2204 51.1180 -110.3205 58.3808 -77.5024 0.0000 0.0000 18.1435 18.1914 -0.0693 -0.0228 7.1250 -0.0000 -0.0000 33.2189 -28.6292 15.8392
8.1587 16.2483 -13.8510 -6.9905 8.0272 -339.3610 0.0000 0.0000 0.0000 -18.6068 -18.0828 -56.1307 12.9068 18.7482 68.8357 0.8342 3.8973 16.3843 0.1343 2.3619 6.5070 0.0000 0.0000 0.0000 13.6222 28.9026 -36.2857 -6.1854 -14.6057 45.7215 0.4292 -17.0472 7.2049 -1.9306 8.7200 -24.9235 7.9639 -3.2189 24.8589 3.5017 -1.7259 4.7922 -0.1239 -0.9644 -8.6192 -2.1912 4.2301 -10.9982 0.3565 5.9464 -7.5756 0.6157 3.0636 -0.6265 -0.0000 -0.0000 0.0000 -94.9477 -20.3717 52.9589 104.7952 -59.1565 -72.7767 -0.0000 -0.0000 65.2092 -44.4437 37.3130 -30.7320 -7.1250 0.0000 -0.0000 -76.5833 52.3728 -25.6678 -0.0000 -0.0000 0.0000 78.5722 28.5502 50.6938 -110.9842 58.2690 -78.0672 0.0000 0.0000 18.3232 17.7789 0.2768 0.0888 7.1250 -0.0000 -0.0000 32.8520 -28.3621 15.8511
8.1124 16.2842 -13.7150 -7.2465 9.4573 -340.3180 0.0000 0.0000 0.0000 -18.0092 -18.6240 -56.1447 12.5763 18.6238 67.8043 0.6596 3.7620 14.5280 0.5417 4.7155 13.0989 0.0000 0.0000 0.0000 15.3369 27.5728 -34.2963 -6.0833 -14.5086 45.3151 0.3193 -16.3122 7.8509 -2.3258 9.5140 -27.4167 8.2940 -3.2496 25.7067 3.5716 -1.5654 4.8061 -0.2519 -0.9018 -9.0349 -2.4138 3.8030 -11.1042 0.6390 5.4095 -7.3583 0.7332 2.7987 -0.5470 -0.0000 0.0000 0.0000 -94.9377 -20.1599 53.8481 105.0841 -59.1226 -73.0247 -0.0000 -0.0000 65.3389 -43.2065 37.9149 -29.9925 -7.1250 0.0000 -0.0000 -76.6073 52.8876 -26.9061 -0.0000 0.0000 0.0000 78.4366 27.6754 50.2191 -111.9968 58.0904 -78.9276 0.0000 0.0000 18.2287 16.7319 0.4730 0.1422 7.1250 -0.0000 -0.0000 32.1289 -28.2805 15.4408
8.0650 16.2791 -13.5743 -7.5549 10.7209 -340.9880 0.0000 0.0000 0.0000 -17.3559 -19.3416 -56.3236 12.0041 18.3924 66.0018 0.4611 2.5189 12.2072 1.0142 6.4073 17.9708 0.0000 0.0000 0.0000 16.5893 26.7619 -33.2055 -6.1633 -14.5848 45.6337 0.3697 -16.1853 7.0619 -2.2899 9.4454 -27.1987 8.6574 -3.1883 26.1409 3.6546 -1.3228 4.8277 -0.4305 -0.7983 -9.2212 -2.5436 3.4034 -10.8321 0.6665 4.8846 -7.5417 0.7420 2.5395 -0.6415 -0.0000 0.0000 0.0000 -94.8478 -20.1011 54.7625 105.0943 -59.1214 -73.0335 -0.0000 -0.0000 65.3169 -42.0979 38.4936 -29.3518 -7.1250 0.0000 -0.0000 -76.6575 53.3717 -28.0603 -0.0000 0.0000 0.0000 78.2437 26.6568 49.6647 -113.3332 57.8394 -80.0606 0.0000 0.0000 17.9143 16.4162 0.5747 0.1693 7.1250 -0.0000 -0.0000 31.8968 -28.2169 15.3454
8.0261 16.2918 -13.4216 -7.1949 11.8485 -341.3250 0.0000 0.0000 0.0000 -17.6880 -20.2132 -55.9486 11.1103 17.9886 63.1393 0.2891 0.7089 9.9310 0.9545 6.2214 17.4281 0.0000 0.0000 0.0000 16.7715 26.0921 -32.6280 -6.3458 -14.7553 46.3542 0.3825 -15.8773 6.5495 -2.2122 9.2948 -26.7219 8.3935 -3.1003 26.4306 3.5758 -1.2529 4.8915 -0.3868 -0.7567 -9.2900 -2.5212 3.1119 -10.5094 0.5814 4.4862 -8.1406 0.6894 2.3437 -0.8699 -0.0000 0.0000 0.0000 -94.6417 -19.9625 55.3822 105.2066 -59.1080 -73.1299 -0.0000 -0.0000 65.4149 -41.0066 39.0143 -28.6944 -7.1250 0.0000 -0.0000 -76.6262 53.8306 -29.0592 -0.0000 0.0000 0.0000 78.1378 25.8861 49.1160 -114.7775 57.5482 -81.2814 0.0000 0.0000 17.4157 18.4505 0.2296 0.0766 7.1250 -0.0000 -0.0000 33.2870 -28.3416 16.1708
7.9872 16.2892 -13.2592 -6.2129 12.5927 -341.1170 0.0000 0.0000 0.0000 -18.8821 -20.8713 -55.5401 10.0622 17.4447 59.6962 0.1726 -0.5266 8.0562 0.7170 5.4110 15.0845 0.0000 0.0000 0.0000 15.9449 25.7356 -32.8260 -6.6572 -15.0363 47.5656 0.2410 -14.8542 7.4632 -2.3174 9.4982 -27.3664 7.4197 -2.8371 26.4304 3.3485 -1.2068 4.9582 -0.1102 -0.7060 -9.2021 -2.6859 2.7984 -10.5043 0.7910 4.0967 -8.6550 0.7695 2.1578 -1.0336 0.0000 -0.0000 0.0000 -94.3412 -19.9288 55.8157 105.5768 -59.0630 -73.4474 -0.0000 -0.0000 65.3182 -40.0845 39.0353 -27.9258 -7.1250 0.0000 -0.0000 -76.0446 54.0318 -29.0051 0.0000 -0.0000 0.0000 77.9660 25.5171 48.5252 -115.9692 57.2917 -82.2855 0.0000 0.0000 16.6523 21.8347 -0.8190 -0.3281 7.1250 -0.0000 -0.0000 35.6870 -28.9041 17.2957
7.9561 16.3086 -13.0886 -5.5316 12.9319 -340.4760 0.0000 0.0000 0.0000 -19.7903 -21.0636 -55.2810 8.9034 16.7451 55.7554 0.1062 -1.6184 6.9756 0.3634 3.8727 10.7188 0.0000 0.0000 0.0000 15.0913 25.8063 -33.7321 -7.0159 -15.3453 48.9344 0.0935 -13.5460 8.3083 -2.2588 9.3856 -27.0092 6.4946 -2.4149 25.8056 3.1751 -0.9999 5.0058 0.1294 -0.5790 -8.8096 -2.9777 2.5235 -10.4809 1.1411 3.7769 -8.9709 0.9198 2.0084 -1.1444 0.0000 -0.0000 0.0000 -94.1227 -20.4901 56.1936 105.5153 -59.0706 -73.3947 -0.0000 -0.0000 64.8304 -40.5220 38.4993 -28.0167 -7.1250 0.0000 -0.0000 -75.6413 53.6939 -27.9298 0.0000 -0.0000 0.0000 77.8163 25.4379 47.9499 -116.4609 57.1815 -82.6990 0.0000 0.0000 16.0596 23.4718 -1.0285 -0.4466 7.1250 -0.0000 -0.0000 36.7115 -28.8842 18.0913
7.9320 16.3313 -12.9133 -5.4127 13.3618 -339.9590 0.0000 0.0000 0.0000 -19.9613 -21.2213 -54.8490 7.7867 15.9601 51.7906 0.1045 -2.0937 7.2540 0.2683 3.3323 9.2054 0.0000 0.0000 0.0000 14.8304 25.6583 -34.9939 -7.4365 -15.6887 50.5066 -0.0820 -11.5630 9.2444 -2.3881 9.6315 -27.7914 6.0481 -2.0951 25.0965 3.1694 -0.7762 5.0663 0.2821 -0.4549 -8.3645 -3.1773 2.3660 -10.4848 1.3531 3.5984 -9.0364 1.0171 1.9259 -1.1688 0.0000 -0.0000 0.0000 -94.0483 -21.1750 56.3789 104.8043 -59.1555 -72.7846 -0.0000 -0.0000 64.1676 -41.2294 37.4699 -28.0629 -7.1250 0.0000 -0.0000 -74.7803 53.0649 -25.8309 0.0000 -0.0000 0.0000 77.6148 25.4753 47.4738 -116.5425 57.1630 -82.7676 0.0000 0.0000 15.8305 23.3743 -0.4504 -0.1947 7.1250 -0.0000 -0.0000 36.4527 -28.3907 18.4627
7.9184 16.3605 -12.7384 -5.4941 14.0633 -339.7480 0.0000 0.0000 0.0000 -19.8922 -21.5080 -53.8568 6.7844 15.1476 48.0541 0.1612 -1.2882 8.1689 0.5611 4.7980 13.3334 0.0000 0.0000 0.0000 15.0049 24.9401 -36.2417 -7.9059 -16.0496 52.2229 -0.3269 -8.8593 11.1298 -2.4955 9.8297 -28.4270 5.9695 -1.9773 24.7758 3.2372 -0.6656 5.0783 0.3582 -0.3963 -8.1810 -3.2338 2.2990 -10.6735 1.4621 3.5238 -8.6871 1.0650 1.8887 -1.0290 -0.0000 0.0000 0.0000 -94.0139 -21.4051 56.4505 103.9773 -59.2488 -72.0742 -0.0000 -0.0000 63.5773 -41.5596 36.8998 -28.0272 -7.1250 0.0000 -0.0000 -74.2644 52.7237 -24.6537 -0.0000 0.0000 0.0000 77.4002 25.4230 47.2314 -116.2854 57.2212 -82.5514 0.0000 0.0000 15.8393 23.3535 -0.2774 -0.1198 7.1250 -0.0000 -0.0000 36.3809 -28.2415 18.5777
